# xmcd CD database file
#
# Track frame offsets:
#	150
#	23200
#	40500
#	61317
#	84150
#	106040
#	127780
#	142150
#	160380
#	178532
#	198290
#	221647
#
# Disc length: 3258 seconds
#
# Revision: 10
# Processed by: cddbd v1.5.2PL0 Copyright (c) Steve Scherf et al.
# Submitted via: CDex 2.23
#
DISCID=970cb80c
DTITLE=Eric Clapton - I Still Do
DYEAR=2016
DGENRE=Blues Rock
TTITLE0=Alabama Woman Blues
TTITLE1=Can't Let You Do It
TTITLE2=I Will Be There
TTITLE3=Spiral
TTITLE4=Catch The Blues
TTITLE5=Cypress Grove
TTITLE6=Little Man, You've Had A Busy Day
TTITLE7=Stones In My Passway
TTITLE8=I Dreamed I Saw St. Augustine
TTITLE9=I'll Be Alright
TTITLE10=Somebody's Knockin'
TTITLE11=I'll Be Seeing You
EXTD=YEAR: 2016
EXTT0=
EXTT1=
EXTT2=
EXTT3=
EXTT4=
EXTT5=
EXTT6=
EXTT7=
EXTT8=
EXTT9=
EXTT10=
EXTT11=
PLAYORDER=
